# xmcd
#
# Track frame offsets:
#	150
#	18594
#	35694
#	47713
#	60849
#	77082
#	92089
#	105663
#	124780
#	135884
#	154233
#	165975
#	177788
#	190041
#
# Disc length: 2669 seconds
#
# Revision: 2
# Processed by: cddbd v1.5.2PL0 Copyright (c) Steve Scherf et al.
# Submitted via: audiograbber 1.83.01
#
DISCID=a40a6b0e
DTITLE=Donald Bergagård - Viloplats i ljusa staden
DYEAR=1999
DGENRE=Other
TTITLE0=Viloplats i ljusa staden
TTITLE1=Det dyra blod
TTITLE2=När namnuppropet ljuder
TTITLE3=Jesus kommer snart
TTITLE4=När han hängde på sitt kors
TTITLE5=På vägen hem
TTITLE6=I saw the light
TTITLE7=Den helande Jesus
TTITLE8=När vi samlas i himlen
TTITLE9=Vilken dag det skall bli
TTITLE10=Var jag varit är ej viktigt
TTITLE11=Låt mig vandra nära dig
TTITLE12=Amazing grace
TTITLE13=Sänd ditt ljus
EXTD=
EXTT0=
EXTT1=
EXTT2=
EXTT3=
EXTT4=
EXTT5=
EXTT6=
EXTT7=
EXTT8=
EXTT9=
EXTT10=
EXTT11=
EXTT12=
EXTT13=
PLAYORDER=
